<svg xmlns="http://www.w3.org/2000/svg" width="1200" height="630" viewBox="0 0 1200 630">
  <defs>
    <linearGradient id="apple" x1="820" y1="130" x2="1110" y2="535" gradientUnits="userSpaceOnUse">
      <stop stop-color="#f15e4f"/>
      <stop offset=".52" stop-color="#dc3f34"/>
      <stop offset="1" stop-color="#b72924"/>
    </linearGradient>
    <filter id="softShadow" x="-30%" y="-30%" width="160%" height="180%">
      <feDropShadow dx="0" dy="28" stdDeviation="28" flood-color="#0b271d" flood-opacity=".2"/>
    </filter>
    <clipPath id="panel"><rect x="720" width="480" height="630"/></clipPath>
  </defs>

  <rect width="1200" height="630" fill="#f8f5ee"/>
  <rect x="720" width="480" height="630" fill="#173c2d"/>
  <rect x="0" width="14" height="630" fill="#d83a2e"/>

  <g transform="translate(70 58)">
    <circle cx="16" cy="18" r="16" fill="#d83a2e"/>
    <path d="M18 5C23-4 32-5 40 0c-4 8-12 10-22 5Z" fill="#547343"/>
    <text x="51" y="27" fill="#173c2d" font-family="Apple SD Gothic Neo, Noto Sans KR, sans-serif" font-size="27" font-weight="700">산속 놀이터</text>
  </g>

  <text x="72" y="156" fill="#b64a40" font-family="Arial, sans-serif" font-size="14" font-weight="700" letter-spacing="4">JECHEON APPLE HARVEST</text>
  <text x="68" y="260" fill="#173c2d" font-family="Apple SD Gothic Neo, Noto Sans KR, sans-serif" font-size="65" font-weight="800" letter-spacing="-2">제천에서 정성껏 키운</text>
  <text x="68" y="348" fill="#d33930" font-family="Apple SD Gothic Neo, Noto Sans KR, sans-serif" font-size="82" font-weight="800" letter-spacing="-3">산지 직송 사과</text>

  <line x1="72" y1="402" x2="650" y2="402" stroke="#d8d3ca"/>
  <text x="72" y="452" fill="#5f6d66" font-family="Apple SD Gothic Neo, Noto Sans KR, sans-serif" font-size="27" font-weight="600">썸머킹 · 홍로 · 부사</text>

  <g transform="translate(70 506)">
    <rect width="321" height="66" rx="8" fill="#173c2d"/>
    <text x="160.5" y="43" text-anchor="middle" fill="#fffdf8" font-family="Apple SD Gothic Neo, Noto Sans KR, sans-serif" font-size="23" font-weight="700">산속농원에서 바로 배송</text>
  </g>
  <text x="426" y="548" fill="#8a928d" font-family="Arial, sans-serif" font-size="15" font-weight="700" letter-spacing="2">JECHEON · KOREA</text>

  <g clip-path="url(#panel)">
    <circle cx="1142" cy="52" r="205" fill="#f2d58f"/>
    <path d="M690 482C866 425 1038 343 1238 205" fill="none" stroke="#765739" stroke-width="34" stroke-linecap="round"/>
    <path d="M750 650C842 520 1012 479 1228 532V680H750Z" fill="#6e8d5b"/>

    <g filter="url(#softShadow)">
      <path d="M958 190c-57-45-143-23-170 55-37 108 33 286 170 286s207-178 170-286c-27-78-113-100-170-55Z" fill="url(#apple)"/>
      <path d="M965 190c7-72 57-105 132-91-15 65-62 96-132 91Z" fill="#4d7545"/>
      <path d="M955 183c-5-34 1-67 20-98" fill="none" stroke="#66452f" stroke-width="17" stroke-linecap="round"/>
      <ellipse cx="871" cy="260" rx="27" ry="17" fill="#fff" opacity=".22" transform="rotate(-28 871 260)"/>
    </g>

    <g transform="translate(755 70)">
      <rect width="172" height="102" rx="14" fill="#fffdf8" fill-opacity=".95"/>
      <text x="20" y="30" fill="#718078" font-family="Apple SD Gothic Neo, Noto Sans KR, sans-serif" font-size="13" font-weight="700">제천</text>
      <text x="20" y="62" fill="#173c2d" font-family="Apple SD Gothic Neo, Noto Sans KR, sans-serif" font-size="27" font-weight="800">산지직송</text>
      <text x="20" y="85" fill="#173c2d" font-family="Apple SD Gothic Neo, Noto Sans KR, sans-serif" font-size="14" font-weight="600">산속 놀이터</text>
    </g>
  </g>
</svg>
